<?xml version="1.0" encoding="UTF-8"?>
<svg width="99px" height="24px" viewBox="0 0 99 24" version="1.1" xmlns="http://www.w3.org/2000/svg" xmlns:xlink="http://www.w3.org/1999/xlink">
    <!-- Generator: Sketch 59.1 (86144) - https://sketch.com -->
    <title>majestyk-logotype-black</title>
    <desc>Created with Sketch.</desc>
    <g id="3.6.0" stroke="none" stroke-width="1" fill="none" fill-rule="evenodd">
        <g id="Homepage-3.5.2" transform="translate(-121.000000, -9871.000000)" fill="#000000">
            <g id="Footer" transform="translate(-9.000000, 9806.000000)">
                <g id="majestyk-logotype-black" transform="translate(130.000000, 65.000000)">
                    <path d="M14.7680051,5 L14.2955478,5 C12.530375,5 11.2376006,6.34810171 10.6160269,7.25552278 C10.2928038,5.75186141 9.22370407,5 7.48340368,5 L7.01100528,5 C5.14646086,5 4.02761633,6.32222632 3.43091497,7.17771222 L3.43091497,5 L0,5 L0,19 L3.43091497,19 L3.43091497,9.0962403 C4.10217453,8.68143504 5.07178478,8.1630053 6.38943153,8.1630053 L6.73758591,8.1630053 C7.08568135,8.1630053 7.28448358,8.37031574 7.28448358,8.73324729 L7.28448358,19 L10.7153985,19 L10.7153985,9.0962403 C11.386717,8.68143504 12.3563273,8.1630053 13.674033,8.1630053 L14.0220695,8.1630053 C14.3701649,8.1630053 14.569085,8.37031574 14.569085,8.73324729 L14.569085,19 L18,19 L18,8.37031574 C18,6.1666052 16.8812144,5 14.7680051,5" id="Fill-1"></path>
                    <path d="M25.2070222,15.9406806 L24.1761825,15.9406806 C23.8061053,15.9406806 23.594749,15.7332473 23.594749,15.3703157 L23.594749,13.6332842 C23.594749,13.2703526 23.8061053,13.0629193 24.1761825,13.0629193 L28.3524276,13.0629193 L28.3524276,15.0073842 C27.6387163,15.4221894 26.6078765,15.9406806 25.2070222,15.9406806 Z M32,19 L32,8.37031574 C32,6.1666052 30.8106273,5 28.5639092,5 L23.9118774,5 C21.6651593,5 20.4757867,6.1666052 20.4757867,8.37031574 L20.4757867,9.32961051 L24.0704103,9.32961051 L24.0704103,8.5777491 C24.0704103,8.21481755 24.281892,8.00738419 24.6519691,8.00738419 L27.7709315,8.00738419 C28.140946,8.00738419 28.3524276,8.21481755 28.3524276,8.5777491 L28.3524276,10.9628947 C26.8458012,10.6259 25.6564285,10.4962772 24.4933736,10.4962772 L23.7003958,10.4962772 C21.4536777,10.4962772 20,11.9222509 20,14.1259 L20,15.6296228 C20,17.8333333 21.1893727,19 23.4360908,19 L24.546197,19 C26.5286101,19 27.718108,17.6777122 28.3524276,16.8222263 L28.3524276,19 L32,19 L32,19 Z" id="Fill-2"></path>
                    <polygon id="Fill-3" points="34 3 38 3 38 0 34 0"></polygon>
                    <path d="M33.4766161,19.8305988 C33.4766161,20.1472123 33.2723348,20.3319504 33.0170285,20.4638884 L31,21.5722545 L31,24 L33.6807764,23.4195107 C35.7744331,22.9708341 37,22.2584068 37,20.0153369 L37,5 L33.4766161,5 L33.4766161,19.8305988" id="Fill-4"></path>
                    <path d="M47.2953212,10.5999631 L42.7046788,10.5999631 L42.7046788,8.47406315 C42.7046788,8.11107014 42.9194713,7.90363678 43.2953424,7.90363678 L46.7047212,7.90363678 C47.0805287,7.90363678 47.2953212,8.11107014 47.2953212,8.47406315 L47.2953212,10.5999631 Z M47.5101138,5 L42.4899498,5 C40.2080571,5 39,6.1666052 39,8.37031574 L39,15.6296228 C39,17.8333333 40.2080571,19 42.4899498,19 L47.5101138,19 C49.7920065,19 51,17.8333333 51,15.6296228 L51,14.4370807 L47.2953212,14.4370807 L47.2953212,15.5259369 C47.2953212,15.8888684 47.0805287,16.0963018 46.7047212,16.0963018 L43.2953424,16.0963018 C42.9194713,16.0963018 42.7046788,15.8888684 42.7046788,15.5259369 L42.7046788,13.011107 L51,13.011107 L51,8.37031574 C51,6.1666052 49.7920065,5 47.5101138,5 L47.5101138,5 Z" id="Fill-5"></path>
                    <path d="M60.7966789,10.7814596 L56.6969814,10.159221 C55.9910536,10.0555351 55.8824097,9.84810171 55.8824097,9.38142275 L55.8824097,8.37031574 C55.8824097,8.00738419 56.0996331,7.80001229 56.479758,7.80001229 L59.3575336,7.80001229 C59.7376585,7.80001229 59.9548819,8.00738419 59.9548819,8.37031574 L59.9548819,9.35554736 L63.6472936,9.35554736 L63.6472936,8.37031574 C63.6472936,6.1666052 62.4256935,5 60.1176546,5 L55.7195726,5 C53.4118556,5 52.1900624,6.1666052 52.1900624,8.37031574 L52.1900624,9.95178766 C52.1900624,11.7925666 53.1674712,12.6221772 55.3937053,12.9592948 L59.4933385,13.5814719 C60.199395,13.6852193 60.3081676,13.8925298 60.3081676,14.3592087 L60.3081676,15.6296228 C60.3081676,15.9926158 60.0906224,16.1999262 59.7105619,16.1999262 L56.2896956,16.1999262 C55.9095707,16.1999262 55.6923473,15.9926158 55.6923473,15.6296228 L55.6923473,14.4110824 L52,14.4110824 L52,15.6296228 C52,17.8333333 53.2217931,19 55.5295102,19 L60.4710047,19 C62.7783999,19 64,17.8333333 64,15.6296228 L64,13.7889053 C64,11.9480648 63.0229774,11.1185158 60.7966789,10.7814596" id="Fill-6"></path>
                    <path d="M70.112436,1 L66.9409413,1 L66.9409413,5.11430661 L65,5.11430661 L65,8.09713624 L66.8932454,8.09713624 L66.8932454,15.6571411 C66.8932454,17.8428589 68.005962,19 69.9704706,19 L73,19 L73,16.0685596 L70.6802974,16.0685596 C70.349232,16.0685596 70.1601319,15.8628199 70.1601319,15.5027906 L70.1601319,8.09713624 L73,8.09713624 L73,5.11430661 L70.112436,5.11430661 L70.112436,1" id="Fill-7"></path>
                    <polyline id="Fill-8" points="80.5758498 15.4236593 77.7433236 5 74 5 78.8058208 19.2500469 77.3385914 24 80.7023661 24 87 5 83.4089756 5 80.5758498 15.4236593"></polyline>
                    <polyline id="Fill-9" points="94.0327639 11.9573154 98.7376811 5.32001441 94.8471364 5.32001441 91.1939872 10.4879649 90.5746404 10.4879649 90.5746404 0 87 0 87 19 90.5746404 19 90.5746404 13.4266659 91.1416481 13.4266659 94.9786074 19 99 19 94.0327639 11.9573154"></polyline>
                </g>
            </g>
        </g>
    </g>
</svg>